<svg width="68" height="72" viewBox="0 0 68 72" fill="none" xmlns="http://www.w3.org/2000/svg">
<path fill-rule="evenodd" clip-rule="evenodd" d="M31.6357 4.60393C31.6161 4.61574 31.5962 4.62725 31.576 4.63845L5.271 19.2469C5.27067 19.2471 5.27034 19.2473 5.27001 19.2475C5.03675 19.3774 4.84239 19.5673 4.70702 19.7974C4.57146 20.0279 4.49999 20.2905 4.5 20.5579V49.3833C4.50079 50.2742 4.73962 51.1487 5.19179 51.9164C5.64408 52.6843 6.29338 53.3173 7.0725 53.75L31.5725 67.365C32.3151 67.7774 33.1506 67.9938 34 67.9938C34.8494 67.9938 35.6849 67.7774 36.4275 67.365L60.927 53.7503C61.7065 53.3174 62.3565 52.6837 62.8088 51.9153C63.2611 51.1471 63.4997 50.2719 63.5 49.3805C63.5 49.3803 63.5 49.3806 63.5 49.3805V20.5579C63.5 20.2905 63.4285 20.028 63.293 19.7974C63.1574 19.567 62.9628 19.3769 62.7292 19.247C62.7291 19.247 62.7292 19.247 62.7292 19.247L36.4275 4.63846C36.4275 4.63844 36.4275 4.63848 36.4275 4.63846C35.6849 4.22609 34.8494 4.00964 34 4.00964C33.1746 4.00964 32.3624 4.21398 31.6357 4.60393ZM29.5589 1.18319C29.5824 1.16886 29.6063 1.15497 29.6305 1.14151C30.9672 0.399184 32.471 0.00964355 34 0.00964355C35.529 0.00964355 37.0328 0.399184 38.3695 1.14151L64.673 15.7511C65.5299 16.2276 66.2439 16.9245 66.7409 17.7697C67.238 18.6149 67.5 19.5776 67.5 20.5581V49.3805C67.4996 50.9854 67.0701 52.5615 66.2559 53.9445C65.4418 55.3276 64.2726 56.4678 62.8695 57.247L38.37 70.8617C37.0333 71.604 35.529 71.9938 34 71.9938C32.471 71.9938 30.9672 71.6043 29.6305 70.862L5.1305 57.247C3.7281 56.4682 2.55935 55.3287 1.74522 53.9465C0.931089 52.5643 0.501183 50.9896 0.500001 49.3855L0.5 20.5581C0.5 20.558 0.5 20.5581 0.5 20.5581C0.499974 19.5776 0.762048 18.6149 1.25908 17.7697C1.75613 16.9245 2.47008 16.2276 3.327 15.7511L29.5589 1.18319Z" fill="url(#paint0_linear_14_208)"/>
<path fill-rule="evenodd" clip-rule="evenodd" d="M16.5017 8.77871C17.0381 7.81314 18.2557 7.46526 19.2213 8.00168L50.7213 25.5017C51.3562 25.8544 51.75 26.5237 51.75 27.25V39.5C51.75 40.6046 50.8546 41.5 49.75 41.5C48.6454 41.5 47.75 40.6046 47.75 39.5V28.4268L17.2787 11.4983C16.3131 10.9619 15.9653 9.74428 16.5017 8.77871ZM11.253 36.1743C11.7907 35.2095 13.0088 34.8633 13.9737 35.401L24.4737 41.253C25.4385 41.7907 25.7847 43.0088 25.247 43.9737C24.7093 44.9385 23.4912 45.2847 22.5263 44.747L12.0263 38.895C11.0615 38.3573 10.7153 37.1392 11.253 36.1743Z" fill="url(#paint1_linear_14_208)"/>
<path fill-rule="evenodd" clip-rule="evenodd" d="M32 37.1768L1.52869 20.2483L3.47126 16.7517L34 33.7121L64.5287 16.7517L66.4713 20.2483L36 37.1768V71H32V37.1768Z" fill="url(#paint2_linear_14_208)"/>
<defs>
<linearGradient id="paint0_linear_14_208" x1="0.5" y1="36.0017" x2="67.5" y2="36.0017" gradientUnits="userSpaceOnUse">
<stop stop-color="#2AF598"/>
<stop offset="1" stop-color="#009EFD"/>
</linearGradient>
<linearGradient id="paint1_linear_14_208" x1="10.9996" y1="26.375" x2="51.75" y2="26.375" gradientUnits="userSpaceOnUse">
<stop stop-color="#2AF598"/>
<stop offset="1" stop-color="#009EFD"/>
</linearGradient>
<linearGradient id="paint2_linear_14_208" x1="1.52869" y1="43.8759" x2="66.4713" y2="43.8759" gradientUnits="userSpaceOnUse">
<stop stop-color="#2AF598"/>
<stop offset="1" stop-color="#009EFD"/>
</linearGradient>
</defs>
</svg>
